<svg width="89" height="32" viewBox="0 0 89 32" fill="none" xmlns="http://www.w3.org/2000/svg">
<path d="M25.144 10.746C25.2707 11.506 25.3593 12.3293 25.41 13.216C25.486 14.1027 25.486 15.1793 25.41 16.446C25.334 17.6873 25.1567 19.22 24.878 21.044C24.498 23.5013 23.4973 25.566 21.876 27.238C20.2547 28.8847 18.2153 29.9613 15.758 30.468C15.074 30.62 14.276 30.734 13.364 30.81C12.452 30.8607 11.54 30.9113 10.628 30.962C9.74133 30.9873 8.94333 31.0253 8.234 31.076C7.60067 31.2027 6.84067 31.2913 5.954 31.342C5.06733 31.3927 4.23133 31.38 3.446 31.304C2.66067 31.228 2.09067 31.0887 1.736 30.886C1.93867 30.5313 2.10333 29.9993 2.23 29.29C2.35667 28.5553 2.458 27.7573 2.534 26.896C2.61 26.0347 2.63533 25.2113 2.61 24.426L2.496 11.544C2.496 10.5053 2.48333 9.55533 2.458 8.694C2.458 7.83267 2.43267 7.16133 2.382 6.68C2.33133 6.148 2.12867 5.67933 1.774 5.274C1.44467 4.86867 1.204 4.46333 1.052 4.058C0.646667 2.94333 0.469333 1.854 0.52 0.789999C0.646667 0.815332 0.925333 0.853332 1.356 0.903998C1.812 0.929332 2.33133 0.967333 2.914 1.018C3.54733 1.04333 4.53533 1.08133 5.878 1.132C7.246 1.18267 8.63933 1.23333 10.058 1.284C10.058 1.284 10.2607 1.29666 10.666 1.322C11.0967 1.322 11.6287 1.34733 12.262 1.398C12.8953 1.44867 13.554 1.52467 14.238 1.626C14.922 1.702 15.5173 1.80333 16.024 1.93C17.6707 2.36067 19.0513 2.956 20.166 3.716C21.306 4.45067 22.218 5.24867 22.902 6.11C23.6113 6.97133 24.1433 7.82 24.498 8.656C24.8527 9.46667 25.068 10.1633 25.144 10.746ZM11.882 23.78C12.9207 23.5267 13.896 23.0327 14.808 22.298C15.7453 21.538 16.48 20.5247 17.012 19.258C17.5693 17.966 17.772 16.3953 17.62 14.546C17.4427 12.1393 16.8093 10.4673 15.72 9.53C14.656 8.59267 13.2627 8.11133 11.54 8.086C11.0587 8.06067 10.6787 8.37733 10.4 9.036C10.1213 9.69467 9.93133 10.7587 9.83 12.228C9.77933 13.1907 9.74133 13.9127 9.716 14.394C9.69067 14.85 9.678 15.23 9.678 15.534C9.70333 15.838 9.70333 16.2307 9.678 16.712C9.678 16.712 9.678 16.94 9.678 17.396C9.70333 17.852 9.74133 18.422 9.792 19.106C9.84267 19.7647 9.906 20.4487 9.982 21.158C10.058 21.842 10.1467 22.4247 10.248 22.906C10.3747 23.438 10.6153 23.742 10.97 23.818C11.3247 23.8687 11.6287 23.856 11.882 23.78ZM39.4056 8.998C39.9122 8.87133 40.3809 8.998 40.8116 9.378C41.2422 9.758 41.6222 10.2773 41.9516 10.936C42.3062 11.5693 42.5976 12.228 42.8256 12.912C43.0536 13.5707 43.2309 14.128 43.3576 14.584C43.4842 15.04 43.5476 15.268 43.5476 15.268C43.5476 15.268 43.2436 15.3313 42.6356 15.458C42.0529 15.5593 41.3182 15.7747 40.4316 16.104C39.5702 16.408 38.7089 16.8767 37.8476 17.51C37.3409 17.89 36.8596 18.346 36.4036 18.878C35.9476 19.41 35.5549 20.094 35.2256 20.93C34.8962 21.7407 34.6556 22.8173 34.5036 24.16C34.4276 24.844 34.4149 25.5533 34.4656 26.288C34.5162 27.0227 34.5416 27.6433 34.5416 28.15C34.5669 28.606 34.6302 28.9353 34.7316 29.138C34.8582 29.3153 34.9596 29.4673 35.0356 29.594C34.7062 29.898 34.0982 30.24 33.2116 30.62C32.3502 30.9747 31.4002 31.152 30.3616 31.152C29.3482 31.152 28.6009 30.8227 28.1196 30.164C27.6382 29.5053 27.3976 28.5933 27.3976 27.428C27.3976 27.1493 27.3849 26.5413 27.3596 25.604C27.3596 24.6413 27.3469 23.4887 27.3216 22.146C27.3216 20.8033 27.3089 19.41 27.2836 17.966C27.2836 16.522 27.2709 15.1793 27.2456 13.938C27.2456 12.6713 27.2329 11.6453 27.2076 10.86C27.2076 10.0747 27.2076 9.682 27.2076 9.682C27.4609 9.63133 27.8916 9.59333 28.4996 9.568C29.1329 9.54267 29.8169 9.568 30.5516 9.644C31.2862 9.72 31.9702 9.89733 32.6036 10.176C32.9076 10.3027 33.3129 10.4293 33.8196 10.556C34.3516 10.6573 34.8582 10.708 35.3396 10.708C35.8462 10.708 36.2136 10.632 36.4416 10.48C36.9229 10.1253 37.4042 9.82133 37.8856 9.568C38.3922 9.31467 38.8989 9.12467 39.4056 8.998ZM49.1336 8.39C48.2722 8.41533 47.4996 8.17467 46.8156 7.668C46.1569 7.16133 45.6502 6.54067 45.2956 5.806C44.9662 5.046 44.8396 4.324 44.9156 3.64C45.0422 2.60133 45.5109 1.86667 46.3216 1.436C47.1322 1.00533 47.9809 0.777332 48.8676 0.751998C50.1342 0.701332 51.1222 1.03067 51.8316 1.74C52.5409 2.44933 52.8956 3.26 52.8956 4.172C52.8956 4.78 52.7562 5.40067 52.4776 6.034C52.2242 6.66733 51.8189 7.212 51.2616 7.668C50.7042 8.09867 49.9949 8.33933 49.1336 8.39ZM53.1616 27.162C53.1869 27.618 53.3262 28.0107 53.5796 28.34C53.8582 28.644 54.1876 28.9353 54.5676 29.214C54.3902 29.442 54.1622 29.6827 53.8836 29.936C53.6049 30.1893 53.1869 30.43 52.6296 30.658C52.0976 30.8607 51.3249 31.0253 50.3116 31.152C49.9822 31.1773 49.5642 31.1393 49.0576 31.038C48.5509 30.962 48.0442 30.7213 47.5376 30.316C47.0562 29.8853 46.6636 29.214 46.3596 28.302C46.0556 27.3647 45.9289 26.0853 45.9796 24.464C46.0049 24.1853 46.0049 23.6407 45.9796 22.83C45.9796 22.0193 45.9669 21.0567 45.9416 19.942C45.9416 18.8273 45.9289 17.6747 45.9036 16.484C45.9036 15.2933 45.8909 14.1913 45.8656 13.178C45.8656 12.1393 45.8529 11.3033 45.8276 10.67C45.8276 10.0113 45.8276 9.682 45.8276 9.682C46.0556 9.65667 46.4356 9.63133 46.9676 9.606C47.5249 9.55533 48.1329 9.55533 48.7916 9.606C49.4502 9.65667 50.0836 9.78333 50.6916 9.986C51.3249 10.1633 51.8569 10.4547 52.2876 10.86C52.7436 11.2653 53.0096 11.81 53.0856 12.494C53.2122 13.4567 53.2629 14.7487 53.2376 16.37C53.2122 17.966 53.1742 19.714 53.1236 21.614C53.0729 23.4887 53.0856 25.338 53.1616 27.162ZM56.9221 27.884C56.9221 27.6813 56.9221 27.1367 56.9221 26.25C56.9221 25.338 56.9221 24.2107 56.9221 22.868C56.9221 21.5253 56.9094 20.056 56.8841 18.46C56.8841 16.8387 56.8841 15.2047 56.8841 13.558C56.8841 11.9113 56.8714 10.3533 56.8461 8.884C56.8461 7.38933 56.8334 6.09733 56.8081 5.008C56.7828 3.96933 56.6941 3.108 56.5421 2.424C56.3901 1.71467 56.3014 1.284 56.2761 1.132C56.5801 1.08133 57.0361 1.06866 57.6441 1.094C58.2521 1.094 58.9234 1.17 59.6581 1.322C60.4181 1.44867 61.1401 1.664 61.8241 1.968C62.5081 2.24667 63.0781 2.652 63.5341 3.184C63.9901 3.69067 64.2308 4.33667 64.2561 5.122C64.2814 5.60333 64.2941 6.452 64.2941 7.668C64.3194 8.85867 64.3321 10.2647 64.3321 11.886C64.3574 13.482 64.3828 15.1287 64.4081 16.826C64.4334 18.498 64.4461 20.0813 64.4461 21.576C64.4714 23.0707 64.4841 24.3247 64.4841 25.338C64.5094 26.326 64.5221 26.9087 64.5221 27.086C64.5221 27.618 64.6614 28.1373 64.9401 28.644C65.2441 29.1253 65.5608 29.4293 65.8901 29.556C65.7381 29.7587 65.3961 30.0247 64.8641 30.354C64.3321 30.6833 63.7114 30.9873 63.0021 31.266C62.3181 31.5447 61.6214 31.722 60.9121 31.798C60.3294 31.8487 59.7214 31.7093 59.0881 31.38C58.4801 31.076 57.9608 30.62 57.5301 30.012C57.1248 29.404 56.9221 28.6947 56.9221 27.884ZM86.7524 21.462C87.3857 21.8927 87.7911 22.5133 87.9684 23.324C88.1711 24.1093 88.1457 24.9707 87.8924 25.908C87.6644 26.8453 87.1957 27.7447 86.4864 28.606C85.7771 29.442 84.8144 30.1387 83.5984 30.696C82.4077 31.2533 80.9637 31.5447 79.2664 31.57C77.8477 31.5953 76.4544 31.418 75.0864 31.038C73.7437 30.658 72.5151 30.0753 71.4004 29.29C70.3111 28.5047 69.4244 27.4913 68.7404 26.25C68.0564 25.0087 67.6764 23.5267 67.6004 21.804C67.5751 21.4493 67.5751 21.082 67.6004 20.702C67.6257 20.322 67.6511 19.9293 67.6764 19.524C67.6764 19.4227 67.6764 19.3213 67.6764 19.22C67.7017 19.1187 67.7271 19.0173 67.7524 18.916C68.0057 17.396 68.5251 16.0027 69.3104 14.736C70.1211 13.4693 71.1091 12.3927 72.2744 11.506C73.4397 10.6193 74.6811 9.97333 75.9984 9.568C77.3411 9.13733 78.6584 8.98533 79.9504 9.112C81.9517 9.31467 83.4971 9.84667 84.5864 10.708C85.7011 11.5693 86.4231 12.6333 86.7524 13.9C87.1071 15.1413 87.1197 16.484 86.7904 17.928C86.6131 18.6373 86.2077 19.3467 85.5744 20.056C84.9664 20.74 84.2064 21.3607 83.2944 21.918C82.3824 22.45 81.4071 22.868 80.3684 23.172C79.3551 23.4507 78.3671 23.5647 77.4044 23.514C76.9231 23.4887 76.6697 23.6407 76.6444 23.97C76.6191 24.274 76.7584 24.616 77.0624 24.996C77.3664 25.3507 77.7717 25.5913 78.2784 25.718C79.4691 25.9713 80.5837 25.984 81.6224 25.756C82.6864 25.5027 83.4971 25.1607 84.0544 24.73C84.5104 24.3753 84.9917 23.9067 85.4984 23.324C86.0051 22.716 86.4231 22.0953 86.7524 21.462ZM78.4304 17.624C79.0131 17.5733 79.5197 17.396 79.9504 17.092C80.4064 16.7627 80.6344 16.4207 80.6344 16.066C80.6597 15.5593 80.5331 15.154 80.2544 14.85C80.0011 14.5207 79.5577 14.3687 78.9244 14.394C78.2151 14.4193 77.5311 14.5207 76.8724 14.698C76.2137 14.8753 75.8211 15.2427 75.6944 15.8C75.6184 16.18 75.7324 16.5093 76.0364 16.788C76.3404 17.0667 76.7204 17.282 77.1764 17.434C77.6324 17.5607 78.0504 17.624 78.4304 17.624Z" fill="#565759"/>
</svg>
