<?xml version="1.0" standalone="no"?>
<!DOCTYPE svg PUBLIC "-//W3C//DTD SVG 20010904//EN"
 "http://www.w3.org/TR/2001/REC-SVG-20010904/DTD/svg10.dtd">
<svg version="1.0" xmlns="http://www.w3.org/2000/svg"
 width="1000.000000pt" height="317.000000pt" viewBox="0 0 1000.000000 317.000000"
 preserveAspectRatio="xMidYMid meet">

<g transform="translate(0.000000,317.000000) scale(0.100000,-0.100000)"
fill="#000000" stroke="none">
<path d="M5590 2219 c-294 -34 -501 -208 -586 -493 -21 -69 -24 -101 -24 -231
-1 -133 2 -159 24 -228 71 -222 219 -359 461 -429 69 -20 101 -23 230 -22 176
1 261 20 395 86 114 56 229 169 282 278 69 143 72 157 72 355 0 179 0 180 -32
258 -43 104 -73 150 -151 228 -115 115 -261 179 -451 199 -113 11 -113 11
-220 -1z m201 -293 c118 -50 167 -225 141 -507 -17 -186 -55 -268 -147 -310
-77 -36 -172 -16 -220 47 -60 79 -93 268 -81 464 11 167 56 272 131 306 40 18
134 18 176 0z"/>
<path d="M1477 2193 c-4 -3 -7 -217 -7 -474 0 -522 -3 -552 -57 -599 -71 -62
-158 -49 -241 36 l-53 55 -74 -52 c-100 -69 -100 -70 -76 -116 23 -44 51 -76
113 -125 161 -131 459 -167 652 -79 115 52 207 180 227 313 5 35 9 285 9 556
l0 492 -243 0 c-134 0 -247 -3 -250 -7z"/>
<path d="M2539 2153 c-25 -59 -86 -202 -139 -325 -21 -51 -71 -169 -110 -263
-40 -93 -89 -210 -110 -260 -21 -49 -58 -135 -81 -190 -23 -55 -57 -135 -75
-178 -19 -43 -34 -82 -34 -87 0 -6 78 -10 194 -10 l194 0 33 95 33 95 237 0
236 0 16 -37 c9 -21 25 -63 35 -93 l18 -55 242 -3 c133 -1 242 1 242 6 0 4
-18 53 -41 107 -92 225 -194 477 -236 580 -24 61 -50 124 -58 142 -8 17 -15
34 -15 37 0 3 -8 25 -19 49 -23 54 -49 117 -102 247 -23 58 -50 124 -60 148
l-18 42 -181 0 -181 0 -20 -47z m174 -536 c10 -28 22 -65 26 -82 5 -16 25 -75
45 -129 19 -55 34 -101 32 -103 -2 -2 -62 -2 -134 -1 l-130 3 28 75 c15 41 45
123 66 183 21 59 41 107 44 107 3 0 13 -24 23 -53z"/>
<path d="M3570 1520 l0 -680 185 0 185 0 0 343 1 342 155 -160 c86 -88 237
-242 337 -342 l181 -183 128 0 128 0 0 670 c0 369 0 673 0 678 0 4 -81 7 -181
7 l-180 0 1 -318 c0 -235 -2 -317 -11 -311 -12 7 -291 291 -499 507 l-123 127
-153 0 -154 0 0 -680z"/>
<path d="M6666 2088 c-9 -62 -25 -171 -36 -243 -34 -233 -61 -418 -80 -545
-11 -69 -22 -147 -25 -175 -4 -27 -13 -90 -21 -140 -8 -49 -17 -102 -19 -117
l-4 -28 184 0 184 0 5 53 c3 28 13 117 22 197 14 134 43 412 44 435 1 14 29
-37 30 -54 0 -7 11 -39 24 -70 22 -49 62 -153 154 -401 13 -36 29 -81 35 -100
19 -61 17 -60 173 -60 l144 0 15 33 c7 17 28 69 44 114 17 45 37 97 45 115 8
18 27 65 41 103 26 68 104 270 120 310 6 15 11 3 17 -45 19 -150 49 -402 59
-495 5 -55 12 -108 15 -117 5 -16 24 -18 226 -18 l220 0 -5 52 c-2 29 -12 94
-20 143 -8 50 -25 153 -37 230 -42 277 -61 403 -86 555 -13 85 -32 205 -42
265 l-17 110 -206 3 -205 2 -53 -137 c-29 -76 -65 -165 -78 -198 -51 -122 -62
-152 -92 -230 -16 -44 -37 -98 -46 -120 l-17 -40 -16 40 c-8 22 -26 69 -39
105 -13 36 -35 92 -48 125 -12 33 -33 87 -45 120 -35 94 -57 153 -93 245 l-34
85 -209 3 -210 2 -18 -112z"/>
<path d="M8419 2196 c-2 -2 -3 -308 -1 -680 l2 -676 540 0 540 0 0 150 0 150
-295 0 -295 0 0 130 0 130 225 0 225 0 0 140 0 140 -225 0 -225 0 0 105 0 105
270 0 270 0 0 155 0 155 -513 0 c-283 0 -516 -2 -518 -4z"/>
</g>
</svg>
